<?xml version="1.0" encoding="UTF-8"?>
<svg id="Layer_2" data-name="Layer 2" xmlns="http://www.w3.org/2000/svg" viewBox="0 0 209.74 209.74">
  <defs>
    <style>
      .cls-1 {
        fill: #c4423d;
      }

      .cls-2 {
        fill: none;
      }

      .cls-3 {
        fill: #2d2a2b;
      }
    </style>
  </defs>
  <g id="Layer_1-2" data-name="Layer 1">
    <g>
      <g>
        <path class="cls-1" d="M34.38,71.47l.2,66.32c.01,3.28,1.77,6.3,4.62,7.93l57.86,33.17c4.08,2.34,9.17-.62,9.16-5.33l-.21-66.69c-.01-3.28-1.77-6.31-4.62-7.94l-57.54-32.98c-4.22-2.43-9.49.63-9.47,5.51ZM43.29,131.85c14.64-2.07,28.47-4.04,39.44,5.63l8.53,7.51-6.37,7.22-8.52-7.51c-10.55-9.29-22.9-13.98-33.03-12.55M39.52,123.31l40.11-17.66,1.88,4.27,1.88,4.27-40.11,17.66-1.88-4.27-1.88-4.27Z"/>
        <path class="cls-3" d="M105.08,206.06l-70.75-40.56c-12.14-6.95-19.71-19.97-19.76-33.97l-.25-81.33c-.03-10.08,5.36-19.48,14.07-24.53L76.21,3.92c8.94-5.2,20.06-5.23,29.03-.09l75.32,43.18c8.96,5.14,14.55,14.75,14.59,25.09l.27,87.36c.03,10-5.33,19.34-13.97,24.38l-48.49,22.14c-4.38,2.54-9.3,3.8-14.21,3.76-4.72-.03-9.44-1.26-13.66-3.68ZM78.76,8.3L30.94,30.05s0,0,0,0c-7.14,4.15-11.57,11.87-11.54,20.14l.25,81.33c.04,12.19,6.64,23.53,17.21,29.59l70.75,40.56c7.04,4.04,15.78,4.01,22.8-.07l48.49-22.13c7.09-4.13,11.48-11.79,11.46-19.98l-.27-87.36c-.03-8.53-4.65-16.46-12.04-20.7L102.72,8.23c-3.63-2.08-7.69-3.13-11.75-3.16s-8.45,1.05-12.21,3.24Z"/>
      </g>
      <rect class="cls-2" y="0" width="209.74" height="209.74"/>
    </g>
  </g>
</svg>